<?xml version="1.0" encoding="UTF-8"?>
<svg width="19px" height="17px" viewBox="0 0 19 17" version="1.1" xmlns="http://www.w3.org/2000/svg" xmlns:xlink="http://www.w3.org/1999/xlink">
    <!-- Generator: Sketch 48.2 (47327) - http://www.bohemiancoding.com/sketch -->
    <title>noun_570057_cc copy 2@3</title>
    <desc>Created with Sketch.</desc>
    <g id="PIC_USER" stroke="none" stroke-width="1" fill="none" fill-rule="evenodd" transform="translate(-911.000000, -1014.000000)">
        <g id="noun_570057_cc-copy-2" transform="translate(912.000000, 1015.000000)" fill="#4A4A4A" fill-rule="nonzero" stroke="#4A4A4A" stroke-width="0.5">
            <path d="M8.49847018,15 L8.49439067,15 C8.41263048,15 8.33308003,14.9765842 8.26559813,14.9328209 C7.41960965,14.3823073 0,9.42461727 0,4.90262257 C0,2.01601964 1.92552894,0 4.68259809,0 C6.62971443,0 7.90303164,1.26219236 8.5,2.03459079 C9.0966284,1.26235385 10.3697756,0 12.3177419,0 C15.074641,0 17,2.01601964 17,4.90262257 C17,9.41944965 9.57393113,14.3818229 8.72709275,14.9328209 C8.65961085,14.9767457 8.58023037,15 8.49847018,15 Z M4.60532007,0.681818182 C2.24182327,0.681818182 0.653846154,2.37482267 0.653846154,4.89466244 C0.653846154,8.22504435 5.47552529,12.3090247 8.49627154,14.3181818 C11.5197925,12.3070498 16.3461538,8.22092993 16.3461538,4.89466244 C16.3461538,2.37482267 14.7581767,0.681818182 12.3950268,0.681818182 C10.2319997,0.681818182 8.99363076,2.65443914 8.8594062,2.87941601 C8.78605092,3.0023551 8.64870486,3.07838971 8.49991329,3.07838971 C8.35112173,3.07838971 8.21394908,3.0023551 8.1405938,2.87958059 C8.00636924,2.65460371 6.76713319,0.681818182 4.60532007,0.681818182 Z" id="Shape"></path>
        </g>
    </g>
</svg>