<?xml version="1.0" encoding="UTF-8"?>
<svg width="35px" height="22px" viewBox="0 0 35 22" version="1.1" xmlns="http://www.w3.org/2000/svg" xmlns:xlink="http://www.w3.org/1999/xlink">
    <!-- Generator: sketchtool 48.2 (47327) - http://www.bohemiancoding.com/sketch -->
    <title>2C17DB2D-AD6C-4BBD-A8FC-151BE77FA5B1</title>
    <desc>Created with sketchtool.</desc>
    <defs></defs>
    <g id="USER_VIEW" stroke="none" stroke-width="1" fill="none" fill-rule="evenodd" transform="translate(-323.000000, -331.000000)">
        <g id="Page-1-Copy-5" transform="translate(324.000000, 332.000000)" stroke="#4A4A4A">
            <path d="M16.5,20 C21.6732965,20 26.2045514,17.0770283 29.2202753,14.4600813 C30.8156586,13.0756597 31.9868994,11.7768833 32.6046743,11.0418182 C33.1317752,10.4163636 33.1317752,9.5 32.6046743,8.91636364 C30.8191308,6.83363636 24.4100823,0 16.5,0 C14.5871932,0 12.7621613,0.399606079 11.0690583,1.03500487 C5.76062619,3.02718806 1.74909116,7.33727903 0.395325739,8.91636364 C-0.131775246,9.54181818 -0.131775246,10.4581818 0.395325739,11.0418182 C2.18086918,13.1663636 8.5899177,20 16.5,20 Z" id="Stroke-1" stroke-width="0.9"></path>
            <path d="M16.5,16 C20.0672,16 23,13.0672 23,9.5 C23,5.9328 20.0672,3 16.5,3 C12.9328,3 10,5.9328 10,9.5 C10,13.0672 12.9328,16 16.5,16 Z" id="Stroke-3"></path>
        </g>
    </g>
</svg>