<?xml version="1.0" encoding="UTF-8"?>
<svg width="27px" height="27px" viewBox="0 0 27 27" version="1.1" xmlns="http://www.w3.org/2000/svg" xmlns:xlink="http://www.w3.org/1999/xlink">
    <!-- Generator: sketchtool 48.2 (47327) - http://www.bohemiancoding.com/sketch -->
    <title>FFF2B0C1-C4FE-427F-902F-93BF68E59567</title>
    <desc>Created with sketchtool.</desc>
    <defs>
        <polygon id="path-1" points="0.0002 0.167 20.4212382 0.167 20.4212382 26.1596 0.0002 26.1596"></polygon>
    </defs>
    <g id="USER_VIEW" stroke="none" stroke-width="1" fill="none" fill-rule="evenodd" transform="translate(-696.000000, -329.000000)">
        <g id="Page-1" transform="translate(696.000000, 328.000000)">
            <g id="Group-3" transform="translate(0.000000, 0.833000)">
                <mask id="mask-2" fill="white">
                    <use xlink:href="#path-1"></use>
                </mask>
                <g id="Clip-2"></g>
                <path d="M5.5342,6.5366 C5.5342,3.6186 7.7812,1.3326 10.6502,1.3326 C13.5192,1.3326 15.7662,3.6186 15.7662,6.5366 C15.7662,9.4546 13.5192,11.7406 10.6502,11.7406 C7.7812,11.7406 5.5342,9.4546 5.5342,6.5366 M4.4172,24.9936 C2.6572,24.9936 1.2252,23.5386 1.2252,21.7496 L1.2252,20.2566 C1.2252,16.2036 4.4672,12.9066 8.4502,12.9066 L12.9412,12.9066 C15.6702,12.9066 18.0482,14.3736 19.3042,16.8306 C19.3882,16.9746 19.5342,17.0896 19.6932,17.1296 C19.8292,17.1636 19.9692,17.1406 20.0932,17.0646 C20.2612,16.9626 20.3802,16.8016 20.4132,16.6356 C20.4272,16.5606 20.4302,16.4526 20.3602,16.3576 C19.2172,14.1296 17.2302,12.5636 14.8792,12.0106 L14.1932,11.8496 L14.7352,11.4006 C16.1112,10.2616 16.9002,8.4896 16.9002,6.5366 C16.9002,3.0246 14.0972,0.1666 10.6502,0.1666 C7.2042,0.1666 4.3992,3.0246 4.3992,6.5366 C4.3992,8.3856 5.2122,10.2066 6.5732,11.4076 L7.0772,11.8516 L6.4242,12.0106 C2.7022,12.9126 0.0002,16.3806 0.0002,20.2566 L0.0002,21.7496 C0.0002,24.1816 1.9402,26.1596 4.3252,26.1596 L12.8502,26.1596 C13.2052,26.1596 13.4172,25.9416 13.4172,25.5766 C13.4172,24.9936 13.0712,24.9936 12.9412,24.9936 L4.4172,24.9936 Z" id="Fill-1" fill="#484848" mask="url(#mask-2)"></path>
            </g>
            <path d="M16.415,24.7207 L24.716,24.7207 L22.414,26.9237 C22.303,27.0307 22.243,27.1587 22.243,27.2927 C22.243,27.4277 22.303,27.5557 22.414,27.6627 C22.652,27.8897 22.995,27.8887 23.229,27.6627 L26.321,24.6157 C26.353,24.5507 26.399,24.4917 26.46,24.4477 C26.462,24.4457 26.463,24.4437 26.465,24.4417 L26.465,23.9217 C26.447,23.8987 26.429,23.8707 26.414,23.8387 L26.383,23.8087 L23.226,20.6987 C23.108,20.5857 22.915,20.5327 22.822,20.5327 C22.65,20.5327 22.547,20.5747 22.413,20.7017 C22.303,20.8077 22.243,20.9357 22.243,21.0707 C22.243,21.2057 22.303,21.3337 22.414,21.4397 L24.716,23.6427 L16.322,23.6427 C15.96,23.6427 15.743,23.8447 15.743,24.1817 C15.743,24.5357 16.081,24.7207 16.415,24.7207" id="Fill-4" fill="#484848"></path>
        </g>
    </g>
</svg>