<?xml version="1.0" encoding="UTF-8"?>
<svg width="25px" height="21px" viewBox="0 0 25 21" version="1.1" xmlns="http://www.w3.org/2000/svg" xmlns:xlink="http://www.w3.org/1999/xlink">
    <!-- Generator: sketchtool 48.2 (47327) - http://www.bohemiancoding.com/sketch -->
    <title>CD69F669-6881-4FAC-B10E-5A0081BB92F8</title>
    <desc>Created with sketchtool.</desc>
    <defs></defs>
    <g id="USER_VIEW" stroke="none" stroke-width="1" fill="none" fill-rule="evenodd" transform="translate(-208.000000, -330.000000)">
        <g id="noun_570057_cc" transform="translate(208.000000, 330.000000)" fill="#4A4A4A" fill-rule="nonzero">
            <path d="M12.4977503,21 L12.491751,21 C12.3715154,21 12.2545295,20.9672179 12.1552914,20.9059492 C10.9111907,20.1352303 0,13.1944642 0,6.8636716 C0,2.82242749 2.8316602,0 6.88617366,0 C9.74958005,0 11.6221053,1.76706931 12.5,2.8484271 C13.3773947,1.76729539 15.24967,0 18.1143263,0 C22.1685898,0 25,2.82242749 25,6.8636716 C25,13.1872295 14.0793105,20.134552 12.8339599,20.9059492 C12.7347218,20.967444 12.6179858,21 12.4977503,21 Z M6.88617366,1.07638395 C3.47933248,1.07638395 1.19035716,3.40210581 1.19035716,6.8636716 C1.19035716,11.4386991 8.14052314,17.0489632 12.4947506,19.8089917 C16.8529776,17.0462502 23.8098928,11.433047 23.8098928,6.8636716 C23.8098928,3.40210581 21.5209175,1.07638395 18.1145763,1.07638395 C14.9967004,1.07638395 13.2116646,3.78622182 13.0181878,4.09527808 C12.9124505,4.26416252 12.7144743,4.36861314 12.5,4.36861314 C12.2855257,4.36861314 12.0877995,4.26416252 11.9820622,4.09550417 C11.7885854,3.7864479 10.0022997,1.07638395 6.88617366,1.07638395 Z" id="Shape"></path>
        </g>
    </g>
</svg>