<?xml version="1.0" encoding="UTF-8"?>
<svg width="23px" height="23px" viewBox="0 0 23 23" version="1.1" xmlns="http://www.w3.org/2000/svg" xmlns:xlink="http://www.w3.org/1999/xlink">
    <!-- Generator: sketchtool 48.2 (47327) - http://www.bohemiancoding.com/sketch -->
    <title>2F0FBB1F-47B3-4D77-A73F-534BFF43D358</title>
    <desc>Created with sketchtool.</desc>
    <defs></defs>
    <g id="USER_VIEW" stroke="none" stroke-width="1" fill="none" fill-rule="evenodd" transform="translate(-455.000000, -331.000000)">
        <g id="noun_1003547_cc" transform="translate(455.000000, 331.000000)" fill="#4A4A4A">
            <g id="Group">
                <path d="M1.74786932,0.0935944944 C0.790198977,0.0935944944 0,0.874904494 0,1.82182483 L0,21.1069449 C0,22.0553461 0.791550227,22.8351753 1.74786932,22.8351753 L21.2521307,22.8351753 C22.2099526,22.8351753 23,22.0553461 23,21.1069449 L23,1.82182483 C23,0.874904494 22.2112986,0.0935944944 21.2521307,0.0935944944 L1.74786932,0.0935944944 Z M1.74786932,1.12730236 L21.2521307,1.12730236 C21.6407392,1.12730236 21.9545455,1.44110506 21.9545455,1.82182483 L21.9545455,8.2098164 L18.5568182,5.48018157 C18.4618797,5.40515114 18.3434683,5.36517229 18.221946,5.36711978 C18.0530646,5.36770488 17.8948714,5.44892072 17.7972301,5.58516753 L10.274858,16.2048955 L5.52947443,12.7484348 C5.3132026,12.5939499 5.01397682,12.6252822 4.83522727,12.8211303 L1.04545455,16.947873 L1.04545455,1.82182483 C1.04545455,1.44110506 1.36297216,1.12730236 1.74786932,1.12730236 Z M18.3362926,6.63502708 L21.9545455,9.54233045 L21.9545455,21.1069449 C21.9545455,21.4913292 21.6420852,21.8014674 21.2521307,21.8014674 L1.74786932,21.8014674 C1.36162091,21.8014674 1.04545455,21.4913292 1.04545455,21.1069449 L1.04545455,18.4742202 L5.29261364,13.8629011 L10.0870028,17.3516652 C10.2003509,17.4330855 10.3420081,17.4661136 10.4802043,17.4433421 C10.6184004,17.4205707 10.7415696,17.3439054 10.8220881,17.2305404 L18.3362926,6.63502708 Z" id="Shape"></path>
                <path d="M6.06853693,2.62811697 C4.34361273,2.62811697 2.9321733,4.02099438 2.9321733,5.72924056 C2.9321733,7.43540899 4.34298023,8.83036416 6.06853693,8.83036416 C7.79409364,8.83036416 9.20490057,7.43540899 9.20490057,5.72924056 C9.20490057,4.02099438 7.79346114,2.62811697 6.06853693,2.62811697 Z M6.06853693,3.66182483 C7.22906727,3.66182483 8.15944602,4.57928449 8.15944602,5.72924056 C8.15944602,6.87610584 7.22843477,7.79665629 6.06853693,7.79665629 C4.90863909,7.79665629 3.97762784,6.87610584 3.97762784,5.72924056 C3.97762784,4.57928449 4.90800659,3.66182483 6.06853693,3.66182483 Z" id="Shape"></path>
            </g>
        </g>
    </g>
</svg>