<?xml version="1.0" encoding="UTF-8"?>
<svg width="47px" height="47px" viewBox="0 0 47 47" version="1.1" xmlns="http://www.w3.org/2000/svg" xmlns:xlink="http://www.w3.org/1999/xlink">
    <!-- Generator: sketchtool 48.2 (47327) - http://www.bohemiancoding.com/sketch -->
    <title>A3B7B333-B86E-4A44-B7BF-1D8311804BB7</title>
    <desc>Created with sketchtool.</desc>
    <defs>
        <circle id="path-1" cx="20.5" cy="20.5" r="20.5"></circle>
        <filter x="-14.6%" y="-7.3%" width="129.3%" height="129.3%" filterUnits="objectBoundingBox" id="filter-2">
            <feMorphology radius="1.5" operator="erode" in="SourceAlpha" result="shadowSpreadOuter1"></feMorphology>
            <feOffset dx="0" dy="3" in="shadowSpreadOuter1" result="shadowOffsetOuter1"></feOffset>
            <feGaussianBlur stdDeviation="3" in="shadowOffsetOuter1" result="shadowBlurOuter1"></feGaussianBlur>
            <feColorMatrix values="0 0 0 0 0   0 0 0 0 0   0 0 0 0 0  0 0 0 0.5 0" type="matrix" in="shadowBlurOuter1"></feColorMatrix>
        </filter>
    </defs>
    <g id="USER_VIEW" stroke="none" stroke-width="1" fill="none" fill-rule="evenodd" transform="translate(-830.000000, -328.000000)">
        <g id="Group-4" transform="translate(833.000000, 328.000000)">
            <g id="Oval-2">
                <use fill="black" fill-opacity="1" filter="url(#filter-2)" xlink:href="#path-1"></use>
                <use fill="#CF3BFE" fill-rule="evenodd" xlink:href="#path-1"></use>
            </g>
            <g id="Page-1" transform="translate(10.000000, 7.000000)" fill="#FFFFFF">
                <path d="M5.36373333,5.88462222 C5.36373333,3.41528889 7.26417778,1.48106667 9.68906667,1.48106667 C12.1148444,1.48106667 14.0135111,3.41528889 14.0135111,5.88462222 C14.0135111,8.35395556 12.1148444,10.2881778 9.68906667,10.2881778 C7.26417778,10.2881778 5.36373333,8.35395556 5.36373333,5.88462222 M11.7255111,22.0686222 L4.14862222,22.0686222 C2.70684444,22.0686222 1.53262222,20.8748444 1.53262222,19.4072889 L1.53262222,18.0801778 C1.53262222,14.6001778 4.31395556,11.7690667 7.73351111,11.7690667 L11.7255111,11.7690667 C14.0650667,11.7690667 16.1059556,13.0277333 17.1895111,15.1468444 C17.2952889,15.3281778 17.4757333,15.4659556 17.6730667,15.5157333 C17.8526222,15.5619556 18.0384,15.5308444 18.1975111,15.4330667 C18.3984,15.3104 18.5432889,15.1130667 18.5859556,14.9015111 C18.6144,14.7441778 18.5850667,14.6001778 18.5184,14.5130667 C17.4801778,12.4899556 15.6499556,11.0401778 13.4979556,10.5335111 L13.3246222,10.4935111 L13.4615111,10.3788444 C14.7361778,9.32462222 15.4668444,7.6864 15.4668444,5.88462222 C15.4668444,2.64017778 12.8748444,0.000177777778 9.68906667,0.000177777778 C6.5024,0.000177777778 3.9104,2.64017778 3.9104,5.88462222 C3.9104,7.59128889 4.66151111,9.27217778 5.9184,10.3815111 L6.0464,10.4935111 L5.88017778,10.5335111 C2.47306667,11.3601778 0.000177777778,14.5335111 0.000177777778,18.0801778 L0.000177777778,19.4072889 C0.000177777778,21.6917333 1.82506667,23.5495111 4.06684444,23.5495111 L11.6437333,23.5495111 C12.0855111,23.5495111 12.3708444,23.2588444 12.3708444,22.8090667 C12.3708444,22.5326222 12.2864,22.0686222 11.7255111,22.0686222" id="Fill-1"></path>
                <path d="M20.6756635,20.3398414 L18.3345905,20.3398414 L18.3345905,17.9977585 C18.3345905,17.4968213 17.9255592,17.0888 17.4246221,17.0888 C16.923685,17.0888 16.5156636,17.4968213 16.5156636,17.9977585 L16.5156636,20.3398414 L14.1745906,20.3398414 C13.6726436,20.3398414 13.2646222,20.7478627 13.2646222,21.2487998 C13.2646222,21.7497369 13.6726436,22.1577583 14.1745906,22.1577583 L16.5156636,22.1577583 L16.5156636,24.4998412 C16.5156636,25.0007783 16.923685,25.4087997 17.4246221,25.4087997 C17.9255592,25.4087997 18.3345905,25.0007783 18.3345905,24.4998412 L18.3345905,22.1577583 L20.6756635,22.1577583 C21.1766006,22.1577583 21.5846219,21.7497369 21.5846219,21.2487998 C21.5846219,20.7478627 21.1766006,20.3398414 20.6756635,20.3398414" id="Fill-3"></path>
            </g>
        </g>
    </g>
</svg>