<?xml version="1.0" encoding="UTF-8"?>
<svg width="47px" height="47px" viewBox="0 0 47 47" version="1.1" xmlns="http://www.w3.org/2000/svg" xmlns:xlink="http://www.w3.org/1999/xlink">
    <!-- Generator: sketchtool 48.2 (47327) - http://www.bohemiancoding.com/sketch -->
    <title>E34EE621-7386-43BD-A11A-3A4F2D4EFAF1</title>
    <desc>Created with sketchtool.</desc>
    <defs>
        <circle id="path-1" cx="20.5" cy="20.5" r="20.5"></circle>
        <filter x="-14.6%" y="-7.3%" width="129.3%" height="129.3%" filterUnits="objectBoundingBox" id="filter-2">
            <feMorphology radius="1.5" operator="erode" in="SourceAlpha" result="shadowSpreadOuter1"></feMorphology>
            <feOffset dx="0" dy="3" in="shadowSpreadOuter1" result="shadowOffsetOuter1"></feOffset>
            <feGaussianBlur stdDeviation="3" in="shadowOffsetOuter1" result="shadowBlurOuter1"></feGaussianBlur>
            <feColorMatrix values="0 0 0 0 0   0 0 0 0 0   0 0 0 0 0  0 0 0 0.5 0" type="matrix" in="shadowBlurOuter1"></feColorMatrix>
        </filter>
    </defs>
    <g id="USER_VIEW" stroke="none" stroke-width="1" fill="none" fill-rule="evenodd" transform="translate(-883.000000, -328.000000)">
        <g id="Group-9" transform="translate(886.000000, 328.000000)">
            <g id="Oval-2-Copy">
                <use fill="black" fill-opacity="1" filter="url(#filter-2)" xlink:href="#path-1"></use>
                <use fill="#7ED321" fill-rule="evenodd" xlink:href="#path-1"></use>
            </g>
            <g id="Page-1-Copy-7" transform="translate(9.000000, 12.000000)" stroke="#FFFFFF" stroke-linecap="round" stroke-linejoin="round" stroke-width="1.3">
                <path d="M2,18 L21.6842105,18 C22.78878,18 23.6842105,17.1045695 23.6842105,16 L23.6842105,2 C23.6842105,0.8954305 22.78878,-2.02906125e-16 21.6842105,0 L2,0 C0.8954305,2.02906125e-16 -1.3527075e-16,0.8954305 0,2 L-2.22044605e-16,16 C-8.67738547e-17,17.1045695 0.8954305,18 2,18 Z" id="Stroke-1"></path>
                <polyline id="Stroke-3" points="3.78947368 3.26315789 11.8947368 11.3684211 20 3.26315789"></polyline>
                <path d="M3.78947368,15.1578947 L9.94736842,9.94736842" id="Stroke-4"></path>
                <path d="M19.8947368,15.1578947 L13.7368421,9.94736842" id="Stroke-5"></path>
            </g>
        </g>
    </g>
</svg>