<svg xmlns="http://www.w3.org/2000/svg" width="25" height="25" viewBox="0 0 25 25">
    <g fill="none" fill-rule="evenodd" stroke="#CF3BFE" stroke-linejoin="round" stroke-width="1.6">
        <path d="M4.131 5.404l5.772-3.056a6.006 6.006 0 0 1 5.664.01l5.706 3.048c.793.424.816 1.597.04 2.055l-5.522 3.255a6.01 6.01 0 0 1-6.113.012L4.09 7.463c-.78-.457-.758-1.635.041-2.059zM9.335 23.837l-4.817-2.62c-1.485-.807-2.425-2.264-2.527-3.914l-.327-5.302c-.045-.738.801-1.277 1.483-.946l4.85 2.358c1.664.809 2.705 2.408 2.744 4.215l.116 5.317c.016.743-.855 1.254-1.522.892zM15.94 23.837l4.817-2.62c1.486-.807 2.425-2.264 2.527-3.914l.328-5.302c.045-.738-.801-1.277-1.483-.946l-4.85 2.358c-1.664.809-2.705 2.408-2.744 4.215l-.116 5.317c-.016.743.855 1.254 1.522.892z"/>
    </g>
</svg>
