<svg xmlns="http://www.w3.org/2000/svg" width="29" height="24" viewBox="0 0 29 24">
    <g fill="none" fill-rule="evenodd">
        <path fill="#4A4A4A" fill-rule="nonzero" d="M22.327 12.943V2.87c0-1.414-1.125-2.528-2.553-2.528H2.553C1.125.343 0 1.457 0 2.87v10.072c0 1.414 1.125 2.528 2.553 2.528h.735v3.043c0 .557.476 1.029 1.039 1.029.303 0 .562-.129.779-.343l3.245-3.686h11.466c1.342-.043 2.51-1.2 2.51-2.571zM8.005 14.1a.619.619 0 0 0-.52.257l-2.812 3.214V14.83a.68.68 0 0 0-.692-.686H2.553a1.158 1.158 0 0 1-1.168-1.157V2.87c0-.642.519-1.157 1.168-1.157h17.221c.65 0 1.168.515 1.168 1.157v10.072c0 .643-.519 1.157-1.168 1.157H8.004zm19.687-7.071V17.1c0 1.414-1.125 2.529-2.553 2.529h-.735v3.042c0 .429-.26.815-.65.943-.129.043-.259.086-.345.086-.303 0-.563-.129-.78-.343l-3.244-3.686H9.303a.68.68 0 0 1-.692-.685.68.68 0 0 1 .692-.686h10.384c.217 0 .39.086.52.257l2.812 3.214V19.03a.68.68 0 0 1 .693-.686h1.427c.65 0 1.169-.514 1.169-1.157V7.029c0-.643-.52-1.158-1.169-1.158a.68.68 0 0 1-.692-.685.68.68 0 0 1 .692-.686c1.385 0 2.553 1.114 2.553 2.529zM11.986 8.143c0 .471-.39.814-.823.814-.432 0-.822-.386-.822-.814 0-.429.39-.814.822-.814.433 0 .823.342.823.814zm2.769 0c0 .471-.39.814-.822.814-.433 0-.822-.386-.822-.814 0-.429.389-.814.822-.814.432 0 .822.342.822.814zm-5.539 0c0 .471-.39.814-.822.814-.432 0-.822-.386-.822-.814 0-.429.39-.814.822-.814.433 0 .822.342.822.814z"/>
        <circle cx="24" cy="7" r="5" fill="#7ED321"/>
    </g>
</svg>
