<svg id="Слой_1" data-name="Слой 1" xmlns="http://www.w3.org/2000/svg" viewBox="0 0 17.79 19.65"><defs><style>.cls-1{fill:none;stroke:#4a4a4a;stroke-linecap:round;stroke-linejoin:round;stroke-width:0.65px;}</style></defs><title>incognito</title><path class="cls-1" d="M16.14,18.94l-1-.6A3.32,3.32,0,0,0,12,18.22L10.37,19a3.32,3.32,0,0,1-2.93,0L6,18.25a3.32,3.32,0,0,0-3.08,0l-1.3.7a.89.89,0,0,1-1.31-.78V8.9A8.57,8.57,0,0,1,8.9.32h0A8.57,8.57,0,0,1,17.47,8.9v9.27A.89.89,0,0,1,16.14,18.94Z"/><circle class="cls-1" cx="5.67" cy="7.65" r="2.48"/><circle class="cls-1" cx="12.37" cy="7.65" r="2.48"/><circle class="cls-1" cx="4.67" cy="7.65" r="1.24"/><circle class="cls-1" cx="11.26" cy="7.78" r="1.24"/></svg>