<svg xmlns="http://www.w3.org/2000/svg" xmlns:xlink="http://www.w3.org/1999/xlink" width="16" height="19" viewBox="0 0 16 19">
    <defs>
        <path id="a" d="M0 .585h13.395v16.923H0z"/>
        <path id="c" d="M.285.39h4.731v4.36H.286z"/>
    </defs>
    <g fill="none" fill-rule="evenodd">
        <g transform="translate(0 .365)">
            <mask id="b" fill="#fff">
                <use xlink:href="#a"/>
            </mask>
            <path fill="#484848" d="M3.753 4.835c0-1.834 1.419-3.27 3.23-3.27s3.23 1.436 3.23 3.27c0 1.835-1.419 3.271-3.23 3.271s-3.23-1.436-3.23-3.27M8.86 17.048c0-.283-.114-.399-.392-.399H2.945c-1.093 0-1.983-.9-1.983-2.008v-.962c0-2.567 2.061-4.655 4.596-4.655h2.91a4.46 4.46 0 0 1 3.713 1.93c.122.175.232.36.332.554.069.116.183.204.307.236.11.027.222.01.323-.052.24-.146.322-.425.19-.648A5.427 5.427 0 0 0 9.74 8.223l-.28-.066.222-.182c.91-.75 1.432-1.916 1.432-3.2 0-2.31-1.853-4.19-4.132-4.19-2.28 0-4.133 1.88-4.133 4.19 0 1.216.537 2.413 1.437 3.203l.206.18-.267.065C1.778 8.813 0 11.083 0 13.62v.962c0 1.008.507 1.9 1.274 2.426.46.316 1.015.5 1.612.5H8.41c.278 0 .45-.175.45-.46" mask="url(#b)"/>
        </g>
        <g transform="translate(10.45 13.665)">
            <mask id="d" fill="#fff">
                <use xlink:href="#c"/>
            </mask>
            <path fill="#484848" d="M4.589 2.185h-1.51V.776c0-.238-.164-.386-.427-.386-.264 0-.428.148-.428.386v1.409H.713c-.264 0-.428.148-.428.386 0 .237.164.385.428.385h1.511v1.41c0 .237.164.384.428.384.263 0 .427-.147.427-.385V2.956h1.51c.264 0 .427-.148.427-.385 0-.238-.163-.386-.427-.386" mask="url(#d)"/>
        </g>
    </g>
</svg>
