<svg xmlns="http://www.w3.org/2000/svg" xmlns:xlink="http://www.w3.org/1999/xlink" width="21" height="24" viewBox="0 0 21 24">
    <defs>
        <path id="a" d="M0 0h20.124V23.45H0z"/>
    </defs>
    <g fill="none" fill-rule="evenodd">
        <mask id="b" fill="#fff">
            <use xlink:href="#a"/>
        </mask>
        <path fill="#484848" d="M3.736 19.09l.104-.145c.962-1.348 1.515-3.316 1.515-5.401V9.908c0-2.558 2.11-4.638 4.707-4.638 2.596 0 4.707 2.08 4.707 4.638v3.636c0 2.085.553 4.053 1.515 5.401l.104.146H3.736zm6.326-17.456c.56 0 1.015.45 1.015 1.001a1.01 1.01 0 0 1-1.015 1.002 1.01 1.01 0 0 1-1.015-1.002 1.01 1.01 0 0 1 1.015-1.001zm9.231 17.457c-1.353 0-2.861-2.278-2.861-5.547V9.908c0-2.575-1.574-4.86-4.011-5.82l-.1-.04.055-.093a2.61 2.61 0 0 0 .363-1.32C12.74 1.182 11.537 0 10.062 0 8.586 0 7.385 1.182 7.385 2.635c0 .46.126.917.364 1.32l.055.092-.1.041c-2.437.96-4.012 3.245-4.012 5.82v3.636c0 3.269-1.508 5.547-2.86 5.547a.825.825 0 0 0-.832.817c0 .45.373.817.832.817H9.23v1.91c0 .45.373.816.831.816.458 0 .831-.366.831-.817v-1.91h8.4c.458 0 .83-.366.83-.816a.825.825 0 0 0-.83-.817z" mask="url(#b)"/>
    </g>
</svg>
