<svg xmlns="http://www.w3.org/2000/svg" xmlns:xlink="http://www.w3.org/1999/xlink" width="23" height="23" viewBox="0 0 23 23">
    <defs>
        <path id="a" d="M0 0h22.495v22.49H0z"/>
    </defs>
    <g fill="none" fill-rule="evenodd">
        <mask id="b" fill="#fff">
            <use xlink:href="#a"/>
        </mask>
        <path fill="#484848" d="M12.637 12.636a6.393 6.393 0 0 1-4.554 1.884 6.394 6.394 0 0 1-4.554-1.884 6.446 6.446 0 0 1 0-9.106 6.394 6.394 0 0 1 4.554-1.884c1.722 0 3.34.669 4.554 1.884a6.394 6.394 0 0 1 1.884 4.553c0 1.722-.67 3.339-1.884 4.553zm1.71.552l.236-.318a8.024 8.024 0 0 0 1.575-4.66 8.08 8.08 0 0 0-1.409-4.698 8.25 8.25 0 0 0-.951-1.143 8.029 8.029 0 0 0-5.715-2.37c-2.16 0-4.19.842-5.715 2.369A8.032 8.032 0 0 0 0 8.083c0 2.16.841 4.189 2.368 5.715 2.798 2.801 7.314 3.14 10.501.787l.32-.235 7.904 7.907a.84.84 0 0 0 1.162 0c.32-.32.32-.841 0-1.161l-7.907-7.908z" mask="url(#b)"/>
    </g>
</svg>
