<svg xmlns="http://www.w3.org/2000/svg" width="15" height="15" viewBox="0 0 15 15">
    <path fill="#4A4A4A" fill-rule="nonzero" d="M12.161.14c-.583.202-1.033.637-1.466 1.072H1.216C.55 1.212 0 1.764 0 2.433v11.345C0 14.448.55 15 1.216 15h11.295c.666 0 1.216-.552 1.216-1.222V4.374c.45-.435.883-.887 1.116-1.472.667-1.774-.9-3.397-2.682-2.761zM3.848 9.395c.017-.067.034-.15.05-.217l1.983 1.991c-.85.167-1.7.351-2.55.536.167-.77.334-1.54.517-2.31zM6.414 10.7l-2.05-2.075c.05-.067.1-.118.15-.168L9.58 3.37l1.233-1.238 2.066 2.075c-.034.033-.067.067-.117.1l-2.466 2.477C8.996 8.089 7.713 9.394 6.414 10.7zm6.097 3.597H1.216a.492.492 0 0 1-.5-.502V2.433c0-.284.217-.502.5-.502h8.78L4.698 7.252c-.433.436-1.2.954-1.466 1.54-.217.502-.25 1.188-.367 1.707-.116.535-.233 1.054-.35 1.59a.355.355 0 0 0 .434.434c1.083-.234 2.165-.468 3.232-.702.033 0 .066-.017.1-.017.083-.034.133-.067.166-.134a175693267.159 175693267.159 0 0 0 6.547-6.576v8.718c.017.25-.2.485-.483.485zm1.616-11.53c-.167.352-.45.67-.733.955L11.312 1.63l.116-.117c.25-.251.5-.485.816-.636 1.3-.586 2.466.586 1.883 1.89z"/>
</svg>
