<svg xmlns="http://www.w3.org/2000/svg" width="16" height="15" viewBox="0 0 16 15">
    <path fill="#4A4A4A" fill-rule="nonzero" d="M15.084 5.195l-4.528-.431L8.543.426A.73.73 0 0 0 7.876 0a.728.728 0 0 0-.668.426L5.195 4.763l-4.527.432a.73.73 0 0 0-.623.48.73.73 0 0 0 .168.768l3.325 3.374-.8 4.3a.732.732 0 0 0 .277.719c.222.17.516.2.767.077l4.094-1.985 4.092 1.997a.737.737 0 0 0 .768-.076.732.732 0 0 0 .278-.72l-.8-4.316 3.324-3.37a.729.729 0 0 0 .168-.769.729.729 0 0 0-.622-.48zm-3.529 4.24a.368.368 0 0 0-.1.325l.835 4.504-4.253-2.076a.369.369 0 0 0-.322 0L3.461 14.25l.835-4.488a.367.367 0 0 0-.1-.326l-3.46-3.51 4.739-.451a.37.37 0 0 0 .299-.212l2.1-4.53.002.001 2.102 4.53c.055.118.169.198.3.21l4.737.452-3.46 3.507z"/>
</svg>
