<svg xmlns="http://www.w3.org/2000/svg" xmlns:xlink="http://www.w3.org/1999/xlink" width="17" height="16" viewBox="0 0 17 16">
    <defs>
        <path id="a" d="M0 .031h16.997V16H0z"/>
    </defs>
    <g fill="none" fill-rule="evenodd">
        <path fill="#5C5C5C" d="M14.687 12H6.314c-.173 0-.314.224-.314.5s.14.5.314.5h8.373c.172 0 .313-.224.313-.5s-.14-.5-.313-.5"/>
        <g>
            <mask id="b" fill="#fff">
                <use xlink:href="#a"/>
            </mask>
            <path fill="#5C5C5C" d="M3.007 5.957v8.172c0 .664-.513 1.185-1.167 1.185-.655 0-1.168-.52-1.168-1.185V5.957h2.335zm12.15 9.357H3.22l.1-.146c.243-.354.36-.694.36-1.04V.719h12.646v13.41c0 .665-.513 1.186-1.168 1.186zM16.661.031H3.34c-.172.006-.33.2-.334.348v4.892H.334c-.19.005-.33.21-.334.348v8.51C0 15.16.825 16 1.84 16h13.317c1.015 0 1.84-.84 1.84-1.871V.374c0-.176-.163-.343-.336-.343z" mask="url(#b)"/>
        </g>
        <path fill="#5C5C5C" d="M14.687 9H6.314C6.14 9 6 9.224 6 9.5s.14.5.314.5h8.373c.172 0 .313-.224.313-.5s-.14-.5-.313-.5M6.314 6C6.14 6 6 6.224 6 6.5s.14.5.314.5h8.373c.172 0 .313-.224.313-.5s-.14-.5-.313-.5H6.314zM6.314 3C6.14 3 6 3.224 6 3.5s.14.5.314.5h8.373c.172 0 .313-.224.313-.5s-.14-.5-.313-.5H6.314z"/>
    </g>
</svg>
