<svg xmlns="http://www.w3.org/2000/svg" width="20" height="13" viewBox="0 0 20 13">
    <g fill="none" fill-rule="evenodd" stroke="#9B9B9B">
        <path stroke-width=".9" d="M9.885 12c2.785 0 5.225-1.608 6.849-3.047.859-.761 1.49-1.476 1.822-1.88.284-.344.284-.848 0-1.169C17.595 4.759 14.144 1 9.885 1c-1.03 0-2.013.22-2.925.57-2.858 1.095-5.018 3.466-5.747 4.334-.284.344-.284.848 0 1.169C2.174 8.242 5.625 12 9.885 12z"/>
        <path d="M9.885 9.462A2.975 2.975 0 0 0 12.846 6.5a2.975 2.975 0 0 0-2.961-2.962A2.975 2.975 0 0 0 6.923 6.5a2.975 2.975 0 0 0 2.962 2.962z"/>
    </g>
</svg>
