<svg xmlns="http://www.w3.org/2000/svg" width="17" height="14" viewBox="0 0 17 14">
    <g fill="none" fill-rule="evenodd">
        <path fill="#9B9B9B" d="M7.348 6.087c0 .295-.258.51-.546.51-.288 0-.546-.241-.546-.51 0-.268.258-.51.546-.51.288 0 .546.215.546.51M11.032 6.087c0 .295-.259.51-.547.51-.287 0-.547-.241-.547-.51 0-.268.26-.51.547-.51.288 0 .547.215.547.51M9.19 6.087c0 .295-.26.51-.547.51-.287 0-.546-.241-.546-.51 0-.268.259-.51.546-.51.288 0 .547.215.547.51"/>
        <path stroke="#9B9B9B" stroke-width=".9" d="M16.068 9.093V2.786c0-.886-.749-1.583-1.698-1.583H2.917c-.95 0-1.698.697-1.698 1.583v6.307c0 .885.748 1.583 1.698 1.583h.489v1.905c0 .349.317.644.692.644.2 0 .372-.08.516-.215l2.158-2.308H14.4c.892-.026 1.669-.75 1.669-1.61z"/>
    </g>
</svg>
