<svg xmlns="http://www.w3.org/2000/svg" width="17" height="13" viewBox="0 0 17 13">
    <g fill="#484848" fill-rule="evenodd">
        <path d="M13.17 2.42c-.122-.086-.346-.07-.486.07a.404.404 0 0 0-.037.527l3.018 3.02H4.78a.402.402 0 0 0 0 .803h10.886L12.612 9.9c-.164.128-.225.289-.191.442a.401.401 0 1 0 .713.156l3.794-3.781a.403.403 0 0 0-.002-.558L13.17 2.419z"/>
        <path d="M9.594 8.615a.402.402 0 0 0-.401.403v1.392c0 .443-.173.86-.486 1.174-.313.314-.73.488-1.173.488H2.461A1.662 1.662 0 0 1 .802 10.41V2.466c0-.916.744-1.662 1.659-1.662h5.073c.443 0 .86.173 1.173.487.313.314.486.73.486 1.175v1.392c0 .222.18.403.401.403a.403.403 0 0 0 .401-.403V2.466A2.466 2.466 0 0 0 7.535 0H2.46A2.466 2.466 0 0 0 0 2.466v7.944a2.466 2.466 0 0 0 2.46 2.466h5.074a2.466 2.466 0 0 0 2.461-2.466V9.018a.402.402 0 0 0-.401-.403"/>
    </g>
</svg>
